# xmcd
#
# Track frame offsets:
#	150
#	12928
#	34925
#	52142
#	71257
#	94405
#	110712
#	127038
#	145791
#	162190
#
# Disc length: 2382 seconds
#
# Revision: 0
# Processed by: cddbd v1.5.2PL0 Copyright (c) Steve Scherf et al.
# Submitted via: FairStars CD Ripper 1.51
#
DISCID=8e094c0a
DTITLE=Brad Absher - Big Shuggah
DYEAR=2012
DGENRE=Blues
TTITLE0=Shoulda Known Better
TTITLE1=How To See
TTITLE2=Just Don't Feel It
TTITLE3=Miss You Bad
TTITLE4=Lay Back Down
TTITLE5=Rhythm of the Citiy
TTITLE6=Up To You
TTITLE7=Trust Our Love
TTITLE8=There I Said It
TTITLE9=This Train
EXTD=
EXTT0=
EXTT1=
EXTT2=
EXTT3=
EXTT4=
EXTT5=
EXTT6=
EXTT7=
EXTT8=
EXTT9=
PLAYORDER=
